<svg width="16" height="16" viewBox="0 0 16 16" fill="none" xmlns="http://www.w3.org/2000/svg">
<path opacity="0.3" d="M14.6668 7.99994C14.6668 11.6766 11.6761 14.6666 8.0001 14.6666C4.3241 14.6666 1.33344 11.6766 1.33344 7.99994C1.33344 4.32394 4.3241 1.33327 8.0001 1.33327C11.6761 1.33327 14.6668 4.32394 14.6668 7.99994" stroke="black" stroke-opacity="0.4" stroke-width="1.5"/>
<path d="M10.8139 7.03833C10.8139 7.16567 10.7653 7.29367 10.6679 7.391L8.35459 9.71567C8.26059 9.80967 8.13326 9.86234 7.99993 9.86234C7.86726 9.86234 7.73993 9.80967 7.64593 9.71567L5.33126 7.391C5.13659 7.19567 5.13659 6.87967 5.33259 6.68433C5.52859 6.48967 5.84526 6.49033 6.03993 6.68567L7.99993 8.65434L9.95993 6.68567C10.1546 6.49033 10.4706 6.48967 10.6666 6.68433C10.7653 6.78167 10.8139 6.91033 10.8139 7.03833Z" fill="black"/>
</svg>
